<svg width="144" height="142" viewBox="0 0 144 142" fill="none" xmlns="http://www.w3.org/2000/svg">
<path d="M36.0685 71.8629L89.9657 17.9657L107.931 35.9314L72 71.8629L107.931 107.794L89.9657 125.76L36.0685 71.8629Z" fill="#FDF6F6"/>
<path d="M107.931 71.8629L54.0342 17.9657L36.0685 35.9314L71.9999 71.8629L36.0685 107.794L54.0342 125.76L107.931 71.8629Z" fill="#FDF6F6"/>
<rect x="89.9657" y="89.8286" width="25.4074" height="25.4074" transform="rotate(45 89.9657 89.8286)" fill="url(#paint0_linear_6_93)"/>
<rect x="54.0342" y="53.8972" width="25.4074" height="25.4074" transform="rotate(-135 54.0342 53.8972)" fill="url(#paint1_linear_6_93)"/>
<rect x="89.9657" y="53.8972" width="25.4074" height="25.4074" transform="rotate(45 89.9657 53.8972)" fill="url(#paint2_linear_6_93)"/>
<rect x="54.0342" y="89.8286" width="25.4074" height="25.4074" transform="rotate(-135 54.0342 89.8286)" fill="url(#paint3_linear_6_93)"/>
<defs>
<linearGradient id="paint0_linear_6_93" x1="89.9657" y1="89.8286" x2="102.542" y2="102.66" gradientUnits="userSpaceOnUse">
<stop stop-color="#6E6881" stop-opacity="0.25"/>
<stop offset="1" stop-color="#69637D" stop-opacity="0"/>
</linearGradient>
<linearGradient id="paint1_linear_6_93" x1="54.0342" y1="53.8972" x2="66.6102" y2="66.7285" gradientUnits="userSpaceOnUse">
<stop stop-color="#6E6881" stop-opacity="0.25"/>
<stop offset="1" stop-color="#69637D" stop-opacity="0"/>
</linearGradient>
<linearGradient id="paint2_linear_6_93" x1="89.9657" y1="53.8972" x2="102.542" y2="66.7285" gradientUnits="userSpaceOnUse">
<stop stop-color="#6E6881" stop-opacity="0.25"/>
<stop offset="1" stop-color="#69637D" stop-opacity="0"/>
</linearGradient>
<linearGradient id="paint3_linear_6_93" x1="54.0342" y1="89.8286" x2="66.6102" y2="102.66" gradientUnits="userSpaceOnUse">
<stop stop-color="#6E6881" stop-opacity="0.25"/>
<stop offset="1" stop-color="#69637D" stop-opacity="0"/>
</linearGradient>
</defs>
</svg>
