<svg viewBox="0 0 1024 1024" width="32" height="32" class="icon"><path d="M702.36 494.04H594.59c-35.69 0-64.72-29.04-64.72-64.76v-107.7c0-55.48 45.15-100.64 100.64-100.64h71.79c55.48 0 100.64 45.15 100.64 100.64v71.79c0.04 26.86-10.41 52.14-29.41 71.15-19.03 19.01-44.31 29.49-71.17 29.52zM630.5 278.65c-23.67 0-42.94 19.27-42.94 42.94v107.7c0 3.91 3.16 7.06 7.02 7.06h107.7c11.49 0 22.28-4.51 30.39-12.62 8.11-8.08 12.55-18.86 12.55-30.31V321.6c0-23.67-19.27-42.94-42.94-42.94H630.5z" fill="#4370F5" p-id="18311"></path> <path d="M429.41 494.08h-107.7c-55.48 0-100.64-45.15-100.64-100.64v-71.79c-0.04-26.86 10.44-52.14 29.45-71.15 18.97-19.01 44.25-29.49 71.11-29.53h71.9c55.48 0 100.6 45.15 100.6 100.64v107.7c0.01 35.73-29.03 64.77-64.72 64.77z m-107.7-215.4c-11.49 0-22.28 4.51-30.39 12.62s-12.55 18.86-12.55 30.31v71.82c0 23.67 19.27 42.94 42.94 42.94h107.7c3.87 0 7.02-3.16 7.02-7.06v-107.7c0-23.67-19.23-42.94-42.9-42.94h-71.82z" fill="#4370F5" opacity=".5" p-id="18312"></path> <path d="M702.29 803.02H630.5c-55.48 0-100.64-45.15-100.64-100.64v-107.7c0-35.72 29.04-64.76 64.72-64.76h107.74c55.48 0 100.6 45.15 100.6 100.64v71.86c0 55.48-45.15 100.6-100.63 100.6z m-107.7-215.4c-3.87 0-7.02 3.16-7.02 7.06v107.7c0 23.67 19.27 42.94 42.94 42.94h71.79c23.67 0 42.94-19.23 42.94-42.9v-71.86c0-23.67-19.23-42.94-42.9-42.94H594.59zM393.54 803.05h-71.82c-55.48 0-100.64-45.15-100.64-100.64v-71.79c0-55.45 45.12-100.64 100.56-100.67h107.77c35.72 0 64.76 29.04 64.76 64.76v107.7c0.01 55.49-45.15 100.64-100.63 100.64z m-71.83-215.39c-23.67 0.04-42.94 19.31-42.94 42.97v71.79c0 23.67 19.27 42.94 42.94 42.94h71.82c23.67 0 42.94-19.27 42.94-42.94v-107.7c0-3.91-3.16-7.06-7.06-7.06h-107.7z" fill="#4370F5"></path></svg>